<?xml version="1.0" encoding="UTF-8" standalone="no"?>
<svg
   xmlns:dc="http://purl.org/dc/elements/1.1/"
   xmlns:cc="http://creativecommons.org/ns#"
   xmlns:rdf="http://www.w3.org/1999/02/22-rdf-syntax-ns#"
   xmlns:svg="http://www.w3.org/2000/svg"
   xmlns="http://www.w3.org/2000/svg"
   id="svg8"
   version="1.1"
   viewBox="0 0 300 300"
   height="300mm"
   width="300mm">
  <defs
     id="defs2" />
  <metadata
     id="metadata5">
    <rdf:RDF>
      <cc:Work
         rdf:about="">
        <dc:format>image/svg+xml</dc:format>
        <dc:type
           rdf:resource="http://purl.org/dc/dcmitype/StillImage" />
        <dc:title></dc:title>
      </cc:Work>
    </rdf:RDF>
  </metadata>
  <g
     transform="translate(0,3)"
     id="layer1">
    <path
       style="stroke-width:0.58054775"
       d="m 209.3799,186.52228 v 16.25534 c 0,3.83161 -3.13496,6.96657 -6.96657,6.96657 H 104.8813 c -3.83161,0 -6.966569,-3.13496 -6.966569,-6.96657 v -16.25534 c 0,-3.83161 3.134959,-6.96657 6.966569,-6.96657 h 97.53203 c 3.83161,0 6.96657,3.13496 6.96657,6.96657 z m -6.96657,41.79945 H 104.8813 c -3.83161,0 -6.966569,3.13495 -6.966569,6.96657 v 16.25533 c 0,3.83162 3.134959,6.96657 6.966569,6.96657 h 97.53203 c 3.83161,0 6.96657,-3.13495 6.96657,-6.96657 V 235.2883 c 0,-3.83162 -3.13496,-6.96657 -6.96657,-6.96657 z M 262.84465,74.51949 v 192.79993 c 0,15.38452 -12.48179,27.8663 -27.86631,27.8663 H 67.78058 c -15.38452,0 -27.866293,-12.48178 -27.866293,-27.8663 V 25.811529 c 0,-15.384517 12.481773,-27.8662955 27.866293,-27.8662955 h 118.48981 c 7.37296,0 14.45563,2.96079382 19.68056,8.1857239 L 254.6589,54.838919 c 5.22494,5.166874 8.18575,12.307612 8.18575,19.680571 z M 188.53451,28.075665 V 72.255353 H 232.7142 Z M 244.04977,267.31942 V 100.12165 h -69.4484 c -7.72129,0 -13.93315,-6.211865 -13.93315,-13.93315 V 25.811529 L 57.197247,26.567481 58.709151,265.80752 Z"
       id="path1366" />
    <path
       style="stroke-width:0.13127923"
       d="m 140.80492,121.83504 h -3.07325 L 120.57216,74.271258 a 4.2009354,4.2009354 0 0 0 -3.97775,-2.847447 h -6.19113 a 4.2009354,4.2009354 0 0 0 -3.97776,2.847447 L 89.266013,121.83504 h -3.073249 a 2.1004677,2.1004677 0 0 0 -2.100466,2.10047 v 4.20093 a 2.1004677,2.1004677 0 0 0 2.100466,2.10047 h 16.803746 a 2.1004677,2.1004677 0 0 0 2.10046,-2.10047 v -4.20093 a 2.1004677,2.1004677 0 0 0 -2.10046,-2.10047 h -2.57045 l 3.05881,-8.40188 h 20.02795 l 3.05881,8.40188 h -2.57045 a 2.1004677,2.1004677 0 0 0 -2.10047,2.10047 v 4.20093 a 2.1004677,2.1004677 0 0 0 2.10047,2.10047 h 16.80374 a 2.1004677,2.1004677 0 0 0 2.10047,-2.10047 v -4.20093 a 2.1004677,2.1004677 0 0 0 -2.10047,-2.10047 z m -33.49589,-18.90421 6.18981,-16.999351 6.18982,16.999351 z"
       id="path1377" />
    <path
       style="stroke-width:0.23652835"
       d="m 183.16962,160.31833 -23.58188,-23.58188 c -1.06438,-1.06437 -2.50721,-1.6557 -4.02099,-1.6557 h -3.8554 c 6.52818,-8.34944 10.40724,-18.8513 10.40724,-30.27563 0,-27.177099 -22.02078,-49.197889 -49.1979,-49.197889 -27.177106,0 -49.197898,22.02079 -49.197898,49.197889 0,27.17712 22.020792,49.1979 49.197898,49.1979 11.42433,0 21.92619,-3.87906 30.27563,-10.40724 v 3.85541 c 0,1.51377 0.59133,2.9566 1.6557,4.02099 l 23.58188,23.58187 c 2.22336,2.22337 5.8186,2.22337 8.01832,0 l 6.69373,-6.69375 c 2.22339,-2.22337 2.22339,-5.8186 0.0237,-8.04197 z m -70.24893,-15.77645 c -16.722556,0 -39.060964,-15.55681 -39.736758,-39.73676 -0.844788,-30.226648 21.638961,-39.060959 39.736758,-39.736755 30.89273,-1.153574 40.25983,22.998727 39.73676,39.736755 -0.9461,30.27563 -22.99055,39.73676 -39.73676,39.73676 z"
       id="path1388" />
  </g>
</svg>
